<svg width="107" height="40" viewBox="0 0 107 40" fill="none" xmlns="http://www.w3.org/2000/svg">
<g clip-path="url(#clip0_81_34)">
<path d="M0 26.808C0 25.0177 0.361209 23.3451 1.08363 21.7903C1.80605 20.2356 2.81115 18.885 4.09894 17.7385C5.38673 16.5921 6.91794 15.689 8.69258 15.0294C10.4672 14.3698 12.4068 14.04 14.5112 14.04C16.6156 14.04 18.508 14.362 20.2827 15.0059C22.0573 15.6498 23.5964 16.5449 24.8999 17.6914C26.2034 18.8378 27.2163 20.2042 27.9387 21.7903C28.6612 23.3765 29.0224 25.1276 29.0224 27.0436C29.0224 28.9595 28.6533 30.7106 27.9152 32.2968C27.1771 33.883 26.1641 35.2493 24.8763 36.3957C23.5885 37.5422 22.0416 38.4295 20.2356 39.0577C18.4295 39.6859 16.4743 40 14.3698 40C12.2654 40 10.3808 39.6859 8.62191 39.0577C6.86297 38.4295 5.34747 37.5343 4.07538 36.3722C2.8033 35.21 1.80605 33.8202 1.08363 32.2026C0.361209 30.585 0 28.7868 0 26.808ZM8.99882 26.9022C8.99882 27.7189 9.14802 28.4649 9.44641 29.1402C9.7448 29.8155 10.1374 30.4044 10.6243 30.9069C11.1111 31.4095 11.6922 31.8021 12.3675 32.0848C13.0428 32.3675 13.7574 32.5088 14.5112 32.5088C15.265 32.5088 15.9796 32.3675 16.6549 32.0848C17.3302 31.8021 17.9113 31.4095 18.3981 30.9069C18.885 30.4044 19.2776 29.8155 19.576 29.1402C19.8744 28.4649 20.0236 27.7346 20.0236 26.9493C20.0236 26.1641 19.8744 25.4809 19.576 24.8056C19.2776 24.1303 18.885 23.5414 18.3981 23.0389C17.9113 22.5363 17.3302 22.1437 16.6549 21.861C15.9796 21.5783 15.265 21.437 14.5112 21.437C13.7574 21.437 13.0428 21.5783 12.3675 21.861C11.6922 22.1437 11.1111 22.5363 10.6243 23.0389C10.1374 23.5414 9.7448 24.1225 9.44641 24.7821C9.14802 25.4417 8.99882 26.1484 8.99882 26.9022Z" fill="#748AFF"/>
<path d="M45.85 21.1543C44.2795 20.3376 42.7405 19.9293 41.2328 19.9293C40.4476 19.9293 39.8115 20.0864 39.3247 20.4005C38.8378 20.7146 38.5944 21.1386 38.5944 21.6725C38.5944 21.9552 38.6337 22.183 38.7122 22.3557C38.7907 22.5285 38.9635 22.6934 39.2304 22.8504C39.4974 23.0075 39.89 23.1488 40.4083 23.2744C40.9266 23.4001 41.6097 23.5571 42.4578 23.7456C44.8135 24.2167 46.5724 25.0569 47.7346 26.2662C48.8967 27.4755 49.4778 29.0224 49.4778 30.9069C49.4778 32.3204 49.1951 33.5925 48.6297 34.7232C48.0644 35.8539 47.2791 36.8041 46.274 37.5736C45.2689 38.3431 44.0597 38.9399 42.6462 39.3639C41.2328 39.788 39.678 40 37.9819 40C34.7153 40 31.4958 39.0734 28.3235 37.2202L31.433 31.1896C33.8202 32.8229 36.0816 33.6396 38.2175 33.6396C39.0027 33.6396 39.6466 33.4668 40.1492 33.1213C40.6517 32.7758 40.903 32.3361 40.903 31.8021C40.903 31.488 40.8637 31.2289 40.7852 31.0247C40.7067 30.8206 40.5418 30.6321 40.2905 30.4594C40.0392 30.2866 39.6702 30.1296 39.1833 29.9882C38.6965 29.8469 38.0604 29.6977 37.2752 29.5406C34.6368 29.0067 32.7915 28.2136 31.7393 27.1614C30.6871 26.1091 30.1609 24.6565 30.1609 22.8033C30.1609 21.4527 30.4122 20.2356 30.9148 19.1519C31.4173 18.0683 32.1397 17.1496 33.082 16.3958C34.0243 15.6419 35.1629 15.0608 36.4978 14.6525C37.8327 14.2442 39.3168 14.04 40.9501 14.04C43.6199 14.04 46.2112 14.5583 48.724 15.5948L45.85 21.1543Z" fill="#748AFF"/>
<path d="M49.3953 26.808C49.3953 25.0177 49.7565 23.3451 50.4789 21.7903C51.2013 20.2356 52.2064 18.885 53.4942 17.7385C54.782 16.5921 56.3132 15.689 58.0878 15.0294C59.8625 14.3698 61.802 14.04 63.9065 14.04C66.0109 14.04 67.9033 14.362 69.6779 15.0059C71.4526 15.6498 72.9916 16.5449 74.2951 17.6914C75.5986 18.8378 76.6116 20.2042 77.334 21.7903C78.0564 23.3765 78.4176 25.1276 78.4176 27.0436C78.4176 28.9595 78.0486 30.7106 77.3105 32.2968C76.5723 33.883 75.5594 35.2493 74.2716 36.3957C72.9838 37.5422 71.4369 38.4295 69.6308 39.0577C67.8248 39.6859 65.8695 40 63.7651 40C61.6607 40 59.7761 39.6859 58.0172 39.0577C56.2582 38.4295 54.7427 37.5343 53.4706 36.3722C52.1986 35.21 51.2013 33.8202 50.4789 32.2026C49.7565 30.585 49.3953 28.7868 49.3953 26.808ZM58.3941 26.9022C58.3941 27.7189 58.5433 28.4649 58.8417 29.1402C59.1401 29.8155 59.5327 30.4044 60.0195 30.9069C60.5064 31.4095 61.0874 31.8021 61.7628 32.0848C62.4381 32.3675 63.1526 32.5088 63.9065 32.5088C64.6603 32.5088 65.3748 32.3675 66.0501 32.0848C66.7255 31.8021 67.3065 31.4095 67.7934 30.9069C68.2802 30.4044 68.6728 29.8155 68.9712 29.1402C69.2696 28.4649 69.4188 27.7346 69.4188 26.9493C69.4188 26.1641 69.2696 25.4809 68.9712 24.8056C68.6728 24.1303 68.2802 23.5414 67.7934 23.0389C67.3065 22.5363 66.7255 22.1437 66.0501 21.861C65.3748 21.5783 64.6603 21.437 63.9065 21.437C63.1526 21.437 62.4381 21.5783 61.7628 21.861C61.0874 22.1437 60.5064 22.5363 60.0195 23.0389C59.5327 23.5414 59.1401 24.1225 58.8417 24.7821C58.5433 25.4417 58.3941 26.1484 58.3941 26.9022Z" fill="#748AFF"/>
<path d="M98.4176 0H106.992V39.1048H98.4176V36.4193C96.5959 38.7122 94.1302 39.8587 91.0207 39.8587C89.2618 39.8587 87.6442 39.5289 86.1679 38.8693C84.6917 38.2097 83.4039 37.2988 82.3046 36.1366C81.2052 34.9745 80.3493 33.6082 79.7368 32.0377C79.1244 30.4672 78.8181 28.7711 78.8181 26.9494C78.8181 25.2218 79.1087 23.5807 79.6897 22.0259C80.2708 20.4711 81.0953 19.1127 82.1632 17.9505C83.2312 16.7884 84.5111 15.8697 86.003 15.1944C87.495 14.519 89.1361 14.1814 90.9265 14.1814C93.9418 14.1814 96.4388 15.2336 98.4176 17.3381V0ZM87.6756 26.9494C87.6756 27.7346 87.8169 28.4649 88.0996 29.1402C88.3823 29.8155 88.7671 30.4044 89.2539 30.907C89.7408 31.4095 90.3218 31.8021 90.9971 32.0848C91.6725 32.3675 92.4027 32.5088 93.188 32.5088C93.9732 32.5088 94.6564 32.3675 95.3317 32.0848C96.007 31.8021 96.588 31.4095 97.0749 30.907C97.5617 30.4044 97.9543 29.8233 98.2527 29.1637C98.5511 28.5041 98.7003 27.7974 98.7003 27.0436C98.7003 26.2898 98.5511 25.5752 98.2527 24.8999C97.9543 24.2246 97.5617 23.6357 97.0749 23.1331C96.588 22.6306 96.007 22.2379 95.3317 21.9552C94.6564 21.6726 93.9418 21.5312 93.188 21.5312C92.4341 21.5312 91.7196 21.6726 91.0443 21.9552C90.369 22.2379 89.7879 22.6306 89.301 23.1331C88.8142 23.6357 88.4216 24.2089 88.1232 24.8528C87.8248 25.4967 87.6756 26.1955 87.6756 26.9494Z" fill="#748AFF"/>
</g>
<defs>
<clipPath id="clip0_81_34">
<rect width="106.993" height="40" fill="white"/>
</clipPath>
</defs>
</svg>
